<mxfile host="app.diagrams.net" modified="2020-09-09T14:52:54.896Z" agent="5.0 (Macintosh; Intel Mac OS X 10_15_6) AppleWebKit/605.1.15 (KHTML, like Gecko) Version/13.1.2 Safari/605.1.15" etag="xRV4-JcKuPhskEHcL3G0" version="13.6.9" type="github">
  <diagram id="prtHgNgQTEPvFCAcTncT" name="Page-1">
    <mxGraphModel dx="2226" dy="817" grid="1" gridSize="10" guides="1" tooltips="1" connect="1" arrows="1" fold="1" page="0" pageScale="1" pageWidth="827" pageHeight="1169" background="#F0F0F0" math="0" shadow="0">
      <root>
        <mxCell id="0" />
        <mxCell id="1" parent="0" />
        <mxCell id="AK11A_lTFDKfyhDP3cZT-3" value="" style="rounded=1;whiteSpace=wrap;html=1;sketch=1;shadow=1;fillColor=#d5e8d4;strokeColor=#82b366;" vertex="1" parent="1">
          <mxGeometry x="-440" y="149.38" width="1340" height="810" as="geometry" />
        </mxCell>
        <mxCell id="7Bzw0I9b5etG1VatQICw-91" value="" style="rounded=1;whiteSpace=wrap;html=1;fillColor=#ffe6cc;shadow=1;strokeColor=#d79b00;align=left;" parent="1" vertex="1">
          <mxGeometry x="-250" y="442.52" width="180" height="213.74" as="geometry" />
        </mxCell>
        <mxCell id="7Bzw0I9b5etG1VatQICw-64" style="edgeStyle=orthogonalEdgeStyle;rounded=0;orthogonalLoop=1;jettySize=auto;html=1;exitX=1;exitY=0.5;exitDx=0;exitDy=0;entryX=0;entryY=0.5;entryDx=0;entryDy=0;strokeColor=#8A8A8A;strokeWidth=2;" parent="1" source="C4NGRlxyy_g65lEFCXzj-9" target="7Bzw0I9b5etG1VatQICw-21" edge="1">
          <mxGeometry relative="1" as="geometry" />
        </mxCell>
        <mxCell id="C4NGRlxyy_g65lEFCXzj-9" value="FHIR Inbound" style="rounded=1;whiteSpace=wrap;html=1;fillColor=#d5e8d4;strokeColor=#82b366;shadow=1;" parent="1" vertex="1">
          <mxGeometry x="-210" y="524.38" width="120" height="60" as="geometry" />
        </mxCell>
        <mxCell id="C4NGRlxyy_g65lEFCXzj-11" value="FHIR Processor" style="rounded=1;whiteSpace=wrap;html=1;fillColor=#d5e8d4;strokeColor=#82b366;shadow=1;" parent="1" vertex="1">
          <mxGeometry x="115" y="265" width="120" height="60" as="geometry" />
        </mxCell>
        <mxCell id="7Bzw0I9b5etG1VatQICw-69" style="edgeStyle=orthogonalEdgeStyle;rounded=0;orthogonalLoop=1;jettySize=auto;html=1;exitX=1;exitY=0.5;exitDx=0;exitDy=0;entryX=0;entryY=0.5;entryDx=0;entryDy=0;strokeColor=#8A8A8A;strokeWidth=2;" parent="1" source="C4NGRlxyy_g65lEFCXzj-17" target="7Bzw0I9b5etG1VatQICw-60" edge="1">
          <mxGeometry relative="1" as="geometry" />
        </mxCell>
        <mxCell id="C4NGRlxyy_g65lEFCXzj-17" value="" style="rounded=0;whiteSpace=wrap;html=1;shadow=1;strokeColor=#b85450;fillColor=#f8cecc;" parent="1" vertex="1">
          <mxGeometry x="300" y="233.75" width="360" height="122.5" as="geometry" />
        </mxCell>
        <mxCell id="C4NGRlxyy_g65lEFCXzj-16" value="JSON Parser" style="rounded=1;whiteSpace=wrap;html=1;fillColor=#d5e8d4;strokeColor=#82b366;shadow=1;" parent="1" vertex="1">
          <mxGeometry x="325" y="265" width="120" height="60" as="geometry" />
        </mxCell>
        <mxCell id="C4NGRlxyy_g65lEFCXzj-18" value="Profile" style="rounded=1;whiteSpace=wrap;html=1;fillColor=#d5e8d4;strokeColor=#82b366;shadow=1;" parent="1" vertex="1">
          <mxGeometry x="500" y="250.01" width="120" height="60" as="geometry" />
        </mxCell>
        <mxCell id="C4NGRlxyy_g65lEFCXzj-24" style="edgeStyle=orthogonalEdgeStyle;rounded=0;orthogonalLoop=1;jettySize=auto;html=1;exitX=0.5;exitY=1;exitDx=0;exitDy=0;strokeColor=#000000;" parent="1" source="C4NGRlxyy_g65lEFCXzj-18" target="C4NGRlxyy_g65lEFCXzj-18" edge="1">
          <mxGeometry relative="1" as="geometry" />
        </mxCell>
        <mxCell id="yn-bkgCPsS3zDhoDYlJl-10" value="" style="shape=cross;whiteSpace=wrap;html=1;rounded=0;fillColor=#f5f5f5;strokeColor=#666666;fontColor=#333333;" parent="1" vertex="1">
          <mxGeometry x="465" y="280.63" width="30" height="28.75" as="geometry" />
        </mxCell>
        <mxCell id="7Bzw0I9b5etG1VatQICw-61" style="edgeStyle=orthogonalEdgeStyle;rounded=0;orthogonalLoop=1;jettySize=auto;html=1;exitX=1;exitY=0.5;exitDx=0;exitDy=0;entryX=0;entryY=0.5;entryDx=0;entryDy=0;strokeWidth=2;strokeColor=#8A8A8A;" parent="1" source="7Bzw0I9b5etG1VatQICw-4" target="C4NGRlxyy_g65lEFCXzj-9" edge="1">
          <mxGeometry relative="1" as="geometry" />
        </mxCell>
        <mxCell id="7Bzw0I9b5etG1VatQICw-4" value="Facility&lt;br&gt;1" style="rounded=1;whiteSpace=wrap;html=1;fillColor=#e1d5e7;shadow=1;strokeColor=#9673a6;" parent="1" vertex="1">
          <mxGeometry x="-350" y="170" width="90" height="240" as="geometry" />
        </mxCell>
        <mxCell id="7Bzw0I9b5etG1VatQICw-62" style="edgeStyle=orthogonalEdgeStyle;rounded=0;orthogonalLoop=1;jettySize=auto;html=1;exitX=1;exitY=0.5;exitDx=0;exitDy=0;strokeWidth=2;strokeColor=#8A8A8A;" parent="1" source="7Bzw0I9b5etG1VatQICw-19" edge="1">
          <mxGeometry relative="1" as="geometry">
            <mxPoint x="-210" y="554" as="targetPoint" />
          </mxGeometry>
        </mxCell>
        <mxCell id="7Bzw0I9b5etG1VatQICw-19" value="Facility&lt;br&gt;2" style="rounded=1;whiteSpace=wrap;html=1;fillColor=#e1d5e7;shadow=1;strokeColor=#9673a6;" parent="1" vertex="1">
          <mxGeometry x="-350" y="434.38" width="90" height="240" as="geometry" />
        </mxCell>
        <mxCell id="7Bzw0I9b5etG1VatQICw-63" style="edgeStyle=orthogonalEdgeStyle;rounded=0;orthogonalLoop=1;jettySize=auto;html=1;exitX=1;exitY=0.5;exitDx=0;exitDy=0;entryX=0;entryY=0.5;entryDx=0;entryDy=0;strokeWidth=2;strokeColor=#8A8A8A;" parent="1" source="7Bzw0I9b5etG1VatQICw-20" target="C4NGRlxyy_g65lEFCXzj-9" edge="1">
          <mxGeometry relative="1" as="geometry" />
        </mxCell>
        <mxCell id="7Bzw0I9b5etG1VatQICw-20" value="Facility&lt;br&gt;3" style="rounded=1;whiteSpace=wrap;html=1;fillColor=#e1d5e7;shadow=1;strokeColor=#9673a6;" parent="1" vertex="1">
          <mxGeometry x="-350" y="700" width="90" height="240" as="geometry" />
        </mxCell>
        <mxCell id="7Bzw0I9b5etG1VatQICw-65" style="edgeStyle=orthogonalEdgeStyle;rounded=0;orthogonalLoop=1;jettySize=auto;html=1;exitX=1;exitY=0.5;exitDx=0;exitDy=0;entryX=0;entryY=0.5;entryDx=0;entryDy=0;strokeColor=#8A8A8A;strokeWidth=2;" parent="1" source="7Bzw0I9b5etG1VatQICw-21" target="C4NGRlxyy_g65lEFCXzj-11" edge="1">
          <mxGeometry relative="1" as="geometry" />
        </mxCell>
        <mxCell id="7Bzw0I9b5etG1VatQICw-66" style="edgeStyle=orthogonalEdgeStyle;rounded=0;orthogonalLoop=1;jettySize=auto;html=1;exitX=1;exitY=0.5;exitDx=0;exitDy=0;entryX=0;entryY=0.5;entryDx=0;entryDy=0;strokeColor=#8A8A8A;strokeWidth=2;" parent="1" source="7Bzw0I9b5etG1VatQICw-21" target="7Bzw0I9b5etG1VatQICw-30" edge="1">
          <mxGeometry relative="1" as="geometry" />
        </mxCell>
        <mxCell id="7Bzw0I9b5etG1VatQICw-67" style="edgeStyle=orthogonalEdgeStyle;rounded=0;orthogonalLoop=1;jettySize=auto;html=1;exitX=1;exitY=0.5;exitDx=0;exitDy=0;entryX=0;entryY=0.5;entryDx=0;entryDy=0;strokeColor=#8A8A8A;strokeWidth=2;" parent="1" source="7Bzw0I9b5etG1VatQICw-21" target="7Bzw0I9b5etG1VatQICw-40" edge="1">
          <mxGeometry relative="1" as="geometry" />
        </mxCell>
        <mxCell id="7Bzw0I9b5etG1VatQICw-68" style="edgeStyle=orthogonalEdgeStyle;rounded=0;orthogonalLoop=1;jettySize=auto;html=1;exitX=1;exitY=0.5;exitDx=0;exitDy=0;entryX=0;entryY=0.5;entryDx=0;entryDy=0;strokeColor=#8A8A8A;strokeWidth=2;" parent="1" source="7Bzw0I9b5etG1VatQICw-21" target="7Bzw0I9b5etG1VatQICw-50" edge="1">
          <mxGeometry relative="1" as="geometry" />
        </mxCell>
        <mxCell id="7Bzw0I9b5etG1VatQICw-21" value="FHIR Router" style="rounded=1;whiteSpace=wrap;html=1;fillColor=#d5e8d4;strokeColor=#82b366;shadow=1;" parent="1" vertex="1">
          <mxGeometry x="-50" y="524.38" width="120" height="60" as="geometry" />
        </mxCell>
        <mxCell id="7Bzw0I9b5etG1VatQICw-23" value="Profile" style="rounded=1;whiteSpace=wrap;html=1;fillColor=#d5e8d4;strokeColor=#82b366;shadow=1;" parent="1" vertex="1">
          <mxGeometry x="510" y="260.01" width="120" height="60" as="geometry" />
        </mxCell>
        <mxCell id="7Bzw0I9b5etG1VatQICw-24" value="Profile" style="rounded=1;whiteSpace=wrap;html=1;fillColor=#d5e8d4;strokeColor=#82b366;shadow=1;" parent="1" vertex="1">
          <mxGeometry x="520" y="270.01" width="120" height="60" as="geometry" />
        </mxCell>
        <mxCell id="7Bzw0I9b5etG1VatQICw-25" value="Profile" style="rounded=1;whiteSpace=wrap;html=1;fillColor=#d5e8d4;strokeColor=#82b366;shadow=1;" parent="1" vertex="1">
          <mxGeometry x="530" y="280.01" width="120" height="60" as="geometry" />
        </mxCell>
        <mxCell id="7Bzw0I9b5etG1VatQICw-29" value="" style="endArrow=none;dashed=1;html=1;dashPattern=1 3;strokeWidth=2;exitX=1;exitY=0.5;exitDx=0;exitDy=0;entryX=0;entryY=0.5;entryDx=0;entryDy=0;" parent="1" source="C4NGRlxyy_g65lEFCXzj-11" target="C4NGRlxyy_g65lEFCXzj-17" edge="1">
          <mxGeometry width="50" height="50" relative="1" as="geometry">
            <mxPoint x="420" y="600" as="sourcePoint" />
            <mxPoint x="470" y="550" as="targetPoint" />
          </mxGeometry>
        </mxCell>
        <mxCell id="7Bzw0I9b5etG1VatQICw-30" value="FHIR Processor" style="rounded=1;whiteSpace=wrap;html=1;fillColor=#d5e8d4;strokeColor=#82b366;shadow=1;" parent="1" vertex="1">
          <mxGeometry x="115" y="421.25" width="120" height="60" as="geometry" />
        </mxCell>
        <mxCell id="7Bzw0I9b5etG1VatQICw-70" style="edgeStyle=orthogonalEdgeStyle;rounded=0;orthogonalLoop=1;jettySize=auto;html=1;exitX=1;exitY=0.5;exitDx=0;exitDy=0;entryX=0;entryY=0.5;entryDx=0;entryDy=0;strokeColor=#8A8A8A;strokeWidth=2;" parent="1" source="7Bzw0I9b5etG1VatQICw-31" target="7Bzw0I9b5etG1VatQICw-60" edge="1">
          <mxGeometry relative="1" as="geometry" />
        </mxCell>
        <mxCell id="7Bzw0I9b5etG1VatQICw-31" value="" style="rounded=0;whiteSpace=wrap;html=1;shadow=1;strokeColor=#b85450;fillColor=#f8cecc;" parent="1" vertex="1">
          <mxGeometry x="300" y="390" width="360" height="122.5" as="geometry" />
        </mxCell>
        <mxCell id="7Bzw0I9b5etG1VatQICw-32" value="JSON Parser" style="rounded=1;whiteSpace=wrap;html=1;fillColor=#d5e8d4;strokeColor=#82b366;shadow=1;" parent="1" vertex="1">
          <mxGeometry x="325" y="421.25" width="120" height="60" as="geometry" />
        </mxCell>
        <mxCell id="7Bzw0I9b5etG1VatQICw-33" value="Profile" style="rounded=1;whiteSpace=wrap;html=1;fillColor=#d5e8d4;strokeColor=#82b366;shadow=1;" parent="1" vertex="1">
          <mxGeometry x="500" y="406.26" width="120" height="60" as="geometry" />
        </mxCell>
        <mxCell id="7Bzw0I9b5etG1VatQICw-34" style="edgeStyle=orthogonalEdgeStyle;rounded=0;orthogonalLoop=1;jettySize=auto;html=1;exitX=0.5;exitY=1;exitDx=0;exitDy=0;strokeColor=#000000;" parent="1" source="7Bzw0I9b5etG1VatQICw-33" target="7Bzw0I9b5etG1VatQICw-33" edge="1">
          <mxGeometry relative="1" as="geometry" />
        </mxCell>
        <mxCell id="7Bzw0I9b5etG1VatQICw-35" value="" style="shape=cross;whiteSpace=wrap;html=1;rounded=0;fillColor=#f5f5f5;strokeColor=#666666;fontColor=#333333;" parent="1" vertex="1">
          <mxGeometry x="465" y="436.88" width="30" height="28.75" as="geometry" />
        </mxCell>
        <mxCell id="7Bzw0I9b5etG1VatQICw-36" value="Profile" style="rounded=1;whiteSpace=wrap;html=1;fillColor=#d5e8d4;strokeColor=#82b366;shadow=1;" parent="1" vertex="1">
          <mxGeometry x="510" y="416.26" width="120" height="60" as="geometry" />
        </mxCell>
        <mxCell id="7Bzw0I9b5etG1VatQICw-37" value="Profile" style="rounded=1;whiteSpace=wrap;html=1;fillColor=#d5e8d4;strokeColor=#82b366;shadow=1;" parent="1" vertex="1">
          <mxGeometry x="520" y="426.26" width="120" height="60" as="geometry" />
        </mxCell>
        <mxCell id="7Bzw0I9b5etG1VatQICw-38" value="Profile" style="rounded=1;whiteSpace=wrap;html=1;fillColor=#d5e8d4;strokeColor=#82b366;shadow=1;" parent="1" vertex="1">
          <mxGeometry x="530" y="436.26" width="120" height="60" as="geometry" />
        </mxCell>
        <mxCell id="7Bzw0I9b5etG1VatQICw-39" value="" style="endArrow=none;dashed=1;html=1;dashPattern=1 3;strokeWidth=2;exitX=1;exitY=0.5;exitDx=0;exitDy=0;entryX=0;entryY=0.5;entryDx=0;entryDy=0;" parent="1" source="7Bzw0I9b5etG1VatQICw-30" target="7Bzw0I9b5etG1VatQICw-31" edge="1">
          <mxGeometry width="50" height="50" relative="1" as="geometry">
            <mxPoint x="420" y="756.25" as="sourcePoint" />
            <mxPoint x="470" y="706.25" as="targetPoint" />
          </mxGeometry>
        </mxCell>
        <mxCell id="7Bzw0I9b5etG1VatQICw-40" value="FHIR Processor" style="rounded=1;whiteSpace=wrap;html=1;fillColor=#d5e8d4;strokeColor=#82b366;shadow=1;" parent="1" vertex="1">
          <mxGeometry x="115" y="591.25" width="120" height="60" as="geometry" />
        </mxCell>
        <mxCell id="7Bzw0I9b5etG1VatQICw-71" style="edgeStyle=orthogonalEdgeStyle;rounded=0;orthogonalLoop=1;jettySize=auto;html=1;exitX=1;exitY=0.5;exitDx=0;exitDy=0;entryX=0;entryY=0.5;entryDx=0;entryDy=0;strokeColor=#8A8A8A;strokeWidth=2;" parent="1" source="7Bzw0I9b5etG1VatQICw-41" target="7Bzw0I9b5etG1VatQICw-60" edge="1">
          <mxGeometry relative="1" as="geometry" />
        </mxCell>
        <mxCell id="7Bzw0I9b5etG1VatQICw-41" value="" style="rounded=0;whiteSpace=wrap;html=1;shadow=1;strokeColor=#b85450;fillColor=#f8cecc;" parent="1" vertex="1">
          <mxGeometry x="300" y="560" width="360" height="122.5" as="geometry" />
        </mxCell>
        <mxCell id="7Bzw0I9b5etG1VatQICw-42" value="JSON Parser" style="rounded=1;whiteSpace=wrap;html=1;fillColor=#d5e8d4;strokeColor=#82b366;shadow=1;" parent="1" vertex="1">
          <mxGeometry x="325" y="591.25" width="120" height="60" as="geometry" />
        </mxCell>
        <mxCell id="7Bzw0I9b5etG1VatQICw-43" value="Profile" style="rounded=1;whiteSpace=wrap;html=1;fillColor=#d5e8d4;strokeColor=#82b366;shadow=1;" parent="1" vertex="1">
          <mxGeometry x="500" y="576.26" width="120" height="60" as="geometry" />
        </mxCell>
        <mxCell id="7Bzw0I9b5etG1VatQICw-44" style="edgeStyle=orthogonalEdgeStyle;rounded=0;orthogonalLoop=1;jettySize=auto;html=1;exitX=0.5;exitY=1;exitDx=0;exitDy=0;strokeColor=#000000;" parent="1" source="7Bzw0I9b5etG1VatQICw-43" target="7Bzw0I9b5etG1VatQICw-43" edge="1">
          <mxGeometry relative="1" as="geometry" />
        </mxCell>
        <mxCell id="7Bzw0I9b5etG1VatQICw-45" value="" style="shape=cross;whiteSpace=wrap;html=1;rounded=0;fillColor=#f5f5f5;strokeColor=#666666;fontColor=#333333;" parent="1" vertex="1">
          <mxGeometry x="465" y="606.88" width="30" height="28.75" as="geometry" />
        </mxCell>
        <mxCell id="7Bzw0I9b5etG1VatQICw-46" value="Profile" style="rounded=1;whiteSpace=wrap;html=1;fillColor=#d5e8d4;strokeColor=#82b366;shadow=1;" parent="1" vertex="1">
          <mxGeometry x="510" y="586.26" width="120" height="60" as="geometry" />
        </mxCell>
        <mxCell id="7Bzw0I9b5etG1VatQICw-47" value="Profile" style="rounded=1;whiteSpace=wrap;html=1;fillColor=#d5e8d4;strokeColor=#82b366;shadow=1;" parent="1" vertex="1">
          <mxGeometry x="520" y="596.26" width="120" height="60" as="geometry" />
        </mxCell>
        <mxCell id="7Bzw0I9b5etG1VatQICw-48" value="Profile" style="rounded=1;whiteSpace=wrap;html=1;fillColor=#d5e8d4;strokeColor=#82b366;shadow=1;" parent="1" vertex="1">
          <mxGeometry x="530" y="606.26" width="120" height="60" as="geometry" />
        </mxCell>
        <mxCell id="7Bzw0I9b5etG1VatQICw-49" value="" style="endArrow=none;dashed=1;html=1;dashPattern=1 3;strokeWidth=2;exitX=1;exitY=0.5;exitDx=0;exitDy=0;entryX=0;entryY=0.5;entryDx=0;entryDy=0;" parent="1" source="7Bzw0I9b5etG1VatQICw-40" target="7Bzw0I9b5etG1VatQICw-41" edge="1">
          <mxGeometry width="50" height="50" relative="1" as="geometry">
            <mxPoint x="420" y="926.25" as="sourcePoint" />
            <mxPoint x="470" y="876.25" as="targetPoint" />
          </mxGeometry>
        </mxCell>
        <mxCell id="7Bzw0I9b5etG1VatQICw-50" value="FHIR Processor" style="rounded=1;whiteSpace=wrap;html=1;fillColor=#d5e8d4;strokeColor=#82b366;shadow=1;" parent="1" vertex="1">
          <mxGeometry x="115" y="751.25" width="120" height="60" as="geometry" />
        </mxCell>
        <mxCell id="7Bzw0I9b5etG1VatQICw-72" style="edgeStyle=orthogonalEdgeStyle;rounded=0;orthogonalLoop=1;jettySize=auto;html=1;exitX=1;exitY=0.5;exitDx=0;exitDy=0;entryX=0;entryY=0.5;entryDx=0;entryDy=0;strokeColor=#8A8A8A;strokeWidth=2;" parent="1" source="7Bzw0I9b5etG1VatQICw-51" target="7Bzw0I9b5etG1VatQICw-60" edge="1">
          <mxGeometry relative="1" as="geometry" />
        </mxCell>
        <mxCell id="7Bzw0I9b5etG1VatQICw-51" value="" style="rounded=0;whiteSpace=wrap;html=1;shadow=1;strokeColor=#b85450;fillColor=#f8cecc;" parent="1" vertex="1">
          <mxGeometry x="300" y="720" width="360" height="122.5" as="geometry" />
        </mxCell>
        <mxCell id="7Bzw0I9b5etG1VatQICw-52" value="JSON Parser" style="rounded=1;whiteSpace=wrap;html=1;fillColor=#d5e8d4;strokeColor=#82b366;shadow=1;" parent="1" vertex="1">
          <mxGeometry x="325" y="751.25" width="120" height="60" as="geometry" />
        </mxCell>
        <mxCell id="7Bzw0I9b5etG1VatQICw-53" value="Profile" style="rounded=1;whiteSpace=wrap;html=1;fillColor=#d5e8d4;strokeColor=#82b366;shadow=1;" parent="1" vertex="1">
          <mxGeometry x="500" y="736.26" width="120" height="60" as="geometry" />
        </mxCell>
        <mxCell id="7Bzw0I9b5etG1VatQICw-54" style="edgeStyle=orthogonalEdgeStyle;rounded=0;orthogonalLoop=1;jettySize=auto;html=1;exitX=0.5;exitY=1;exitDx=0;exitDy=0;strokeColor=#000000;" parent="1" source="7Bzw0I9b5etG1VatQICw-53" target="7Bzw0I9b5etG1VatQICw-53" edge="1">
          <mxGeometry relative="1" as="geometry" />
        </mxCell>
        <mxCell id="7Bzw0I9b5etG1VatQICw-55" value="" style="shape=cross;whiteSpace=wrap;html=1;rounded=0;fillColor=#f5f5f5;strokeColor=#666666;fontColor=#333333;" parent="1" vertex="1">
          <mxGeometry x="465" y="766.88" width="30" height="28.75" as="geometry" />
        </mxCell>
        <mxCell id="7Bzw0I9b5etG1VatQICw-56" value="Profile" style="rounded=1;whiteSpace=wrap;html=1;fillColor=#d5e8d4;strokeColor=#82b366;shadow=1;" parent="1" vertex="1">
          <mxGeometry x="510" y="746.26" width="120" height="60" as="geometry" />
        </mxCell>
        <mxCell id="7Bzw0I9b5etG1VatQICw-57" value="Profile" style="rounded=1;whiteSpace=wrap;html=1;fillColor=#d5e8d4;strokeColor=#82b366;shadow=1;" parent="1" vertex="1">
          <mxGeometry x="520" y="756.26" width="120" height="60" as="geometry" />
        </mxCell>
        <mxCell id="7Bzw0I9b5etG1VatQICw-58" value="Profile" style="rounded=1;whiteSpace=wrap;html=1;fillColor=#d5e8d4;strokeColor=#82b366;shadow=1;" parent="1" vertex="1">
          <mxGeometry x="530" y="766.26" width="120" height="60" as="geometry" />
        </mxCell>
        <mxCell id="7Bzw0I9b5etG1VatQICw-59" value="" style="endArrow=none;dashed=1;html=1;dashPattern=1 3;strokeWidth=2;exitX=1;exitY=0.5;exitDx=0;exitDy=0;entryX=0;entryY=0.5;entryDx=0;entryDy=0;" parent="1" source="7Bzw0I9b5etG1VatQICw-50" target="7Bzw0I9b5etG1VatQICw-51" edge="1">
          <mxGeometry width="50" height="50" relative="1" as="geometry">
            <mxPoint x="420" y="1086.25" as="sourcePoint" />
            <mxPoint x="470" y="1036.25" as="targetPoint" />
          </mxGeometry>
        </mxCell>
        <mxCell id="7Bzw0I9b5etG1VatQICw-60" value="FHIR Outbound" style="rounded=1;whiteSpace=wrap;html=1;fillColor=#d5e8d4;strokeColor=#82b366;shadow=1;" parent="1" vertex="1">
          <mxGeometry x="740" y="524.38" width="120" height="60" as="geometry" />
        </mxCell>
        <mxCell id="7Bzw0I9b5etG1VatQICw-94" value="FHIR&lt;br&gt;Server" style="text;html=1;strokeColor=none;fillColor=none;align=center;verticalAlign=middle;whiteSpace=wrap;rounded=0;" parent="1" vertex="1">
          <mxGeometry x="-180" y="456" width="40" height="20" as="geometry" />
        </mxCell>
        <mxCell id="AK11A_lTFDKfyhDP3cZT-4" value="&lt;font style=&quot;font-size: 20px&quot;&gt;The Big Picture&lt;/font&gt;" style="ellipse;whiteSpace=wrap;html=1;shadow=1;sketch=1;fillColor=none;fontFamily=Comic Sans MS;" vertex="1" parent="1">
          <mxGeometry x="135" y="156.75" width="190" height="69.09" as="geometry" />
        </mxCell>
      </root>
    </mxGraphModel>
  </diagram>
</mxfile>
